<svg width="16" height="16" id="Layer_1" data-name="Layer 1" xmlns="http://www.w3.org/2000/svg" version="1.1" viewBox="0 0 68.03 68.03">
  <g>
    <path d="M41.76,49.47c-6.48,3.25-14.57,2.18-19.97-3.23-5.41-5.41-6.47-13.49-3.23-19.97l-7.7-7.7c-7.23,10.81-6.07,25.57,3.47,35.11s24.3,10.7,35.11,3.47l-7.7-7.7Z" fill="#911127" stroke-width="0"/>
    <path d="M26.27,18.56c6.48-3.25,14.57-2.18,19.97,3.23,5.41,5.41,6.47,13.49,3.23,19.97l7.7,7.7c7.23-10.81,6.07-25.57-3.47-35.11-9.55-9.55-24.3-10.7-35.11-3.47l7.7,7.7Z" fill="#911127" stroke-width="0"/>
  </g>
  <circle cx="34.02" cy="34.02" r="11.58" fill="#ee2b4a" stroke-width="0"/>
</svg>